<?xml version="1.0" encoding="utf-8"?>
<!-- Generator: Adobe Illustrator 24.3.0, SVG Export Plug-In . SVG Version: 6.00 Build 0)  -->
<svg version="1.1" id="Ebene_1" xmlns="http://www.w3.org/2000/svg" xmlns:xlink="http://www.w3.org/1999/xlink" x="0px" y="0px"
	 viewBox="0 0 490 200" style="enable-background:new 0 0 490 200;" xml:space="preserve">
<style type="text/css">
	.st0{fill:none;}
	.st1{fill:#FFFFFF;}
	.st2{fill:#599EFF;}
</style>
<rect y="0" class="st0" width="490" height="200"/>
<path class="st1" d="M153.8,69.8V38.9c0-2.7,2.1-4.7,4.7-4.7h75.4h20.3h75.4c2.7,0.1,4.7,2.2,4.7,4.9v64.6l17,17h-17V151
	c0,2.7-2.1,4.7-4.7,4.7h-75.4h-20.3h-75.4c-2.7,0-4.7-2.1-4.7-4.7V86.8l-17-17H153.8z"/>
<g>
	<path class="st2" d="M310.1,137.5h-132c-4.6,0-8.4-3.8-8.4-8.4V60.9c0-4.6,3.8-8.4,8.4-8.4h132c4.6,0,8.4,3.8,8.4,8.4V129
		C318.5,133.7,314.8,137.5,310.1,137.5z"/>
</g>
<path class="st1" d="M250.5,104.4c-1.3,1-6.2-3.3-9.5-6.5c-3.2-3.4-7.5-8.3-6.5-9.5c3.6-4.7,8.9-4.4-2.2-15.8
	c-0.6-0.6-1.6-0.6-2.3,0.1c-2.3,2.1-7.1,6.9-8.7,12c-1.3,4.1,3.9,13.6,11.7,21.4s17.2,13,21.4,11.7c5.1-1.6,9.9-6.4,12-8.7
	c0.6-0.7,0.7-1.7,0.1-2.3C254.9,95.5,255.2,100.8,250.5,104.4z"/>
</svg>
