<?xml version="1.0" encoding="utf-8"?>
<!-- Generator: Adobe Illustrator 24.3.0, SVG Export Plug-In . SVG Version: 6.00 Build 0)  -->
<svg version="1.1" id="Ebene_1" xmlns="http://www.w3.org/2000/svg" xmlns:xlink="http://www.w3.org/1999/xlink" x="0px" y="0px"
	 viewBox="0 0 490 200" style="enable-background:new 0 0 490 200;" xml:space="preserve">
<style type="text/css">
	.st0{fill:none;}
	.st1{fill:#FFFFFF;}
	.st2{fill:#599EFF;}
</style>
<rect y="0" class="st0" width="490" height="200"/>
<path class="st1" d="M268.9,38.9c0-2.7,2.1-4.7,4.7-4.7h21h20.3h14.7c2.7,0.1,4.7,2.2,4.7,4.9v64.6l17,17h-17V151
	c0,2.7-2.1,4.7-4.7,4.7h-14.7h-20.3h-21c-2.7,0-4.7-2.1-4.7-4.7V38.9z"/>
<g>
	<g>
		<g>
			<path class="st2" d="M217.6,58.8h-38.4c-2.7,0-5,2.2-5,5v62.3c0,2.7,2.2,5,5,5h52.5c2.7,0,5-2.2,5-5V77.9L217.6,58.8z"/>
			<path class="st1" d="M217.6,58.8v14.4c0,2.6,2.1,4.7,4.7,4.7h14.4L217.6,58.8z"/>
		</g>
		<g>
			<path class="st1" d="M225.6,90.1h-16.1c-1.3,0-2.4-1.1-2.4-2.4c0-1.3,1.1-2.4,2.4-2.4h16.1c1.3,0,2.4,1.1,2.4,2.4
				C228,89,226.9,90.1,225.6,90.1z"/>
		</g>
		<g>
			<path class="st1" d="M225.6,99.8h-16.1c-1.3,0-2.4-1.1-2.4-2.4c0-1.3,1.1-2.4,2.4-2.4h16.1c1.3,0,2.4,1.1,2.4,2.4
				C228,98.6,226.9,99.8,225.6,99.8z"/>
		</g>
		<g>
			<path class="st1" d="M225.6,114.2h-40.1c-1.3,0-2.4-1.1-2.4-2.4s1.1-2.4,2.4-2.4h40.1c1.3,0,2.4,1.1,2.4,2.4
				S226.9,114.2,225.6,114.2z"/>
		</g>
		<g>
			<path class="st1" d="M225.6,123.9h-40.1c-1.3,0-2.4-1.1-2.4-2.4s1.1-2.4,2.4-2.4h40.1c1.3,0,2.4,1.1,2.4,2.4
				S226.9,123.9,225.6,123.9z"/>
		</g>
	</g>
	<g>
		<path class="st1" d="M254.1,34.2h-70.4h-20.3h-6.6c-2.6,0-4.7,2-4.7,4.7V151c0,2.6,2,4.7,4.7,4.7h6.6h20.3h70.4
			c2.6,0,4.7-2,4.7-4.7V39.1C258.8,36.4,256.8,34.3,254.1,34.2z M250.4,143.7c0,2.4-1.8,4.1-4,4.1h-59.4H170h-5.5
			c-2.3,0-4-1.8-4-4.1V46.2c0-2.4,1.8-4.1,4-4.1h5.5h17.1h59.4c2.3,0.1,4,1.9,4,4.3V143.7z"/>
	</g>
</g>
<path class="st1" d="M182,97.8c0-3.7,2.4-6.7,5.6-7.9c-1.9-1-3.4-3.1-3.4-5.5c0-3.4,2.7-6.1,6.1-6.1c3.4,0,6.1,2.7,6.1,6.1
	c0,2.4-1.4,4.5-3.4,5.5c3.4,1.1,5.6,4.2,5.6,7.9C198.7,102.5,182,102.5,182,97.8z"/>
<g>
	<g>
		<path class="st2" d="M273.7,77.1c-1.7,0-3.3-0.6-4.6-1.9l-12.4-12.4c-2.5-2.5-2.5-6.7,0-9.2c2.5-2.5,6.7-2.5,9.2,0l7.8,7.8
			L290.2,45c2.5-2.5,6.7-2.5,9.2,0c2.5,2.5,2.5,6.7,0,9.2l-21,21C277.1,76.5,275.4,77.1,273.7,77.1z"/>
	</g>
	<g>
		<path class="st2" d="M273.7,112c-1.7,0-3.4-0.7-4.6-1.9l-12.4-12.4c-2.5-2.5-2.5-6.7,0-9.2c2.5-2.5,6.7-2.5,9.2,0l7.8,7.8
			l16.4-16.4c2.5-2.5,6.7-2.5,9.2,0c2.5,2.5,2.5,6.7,0,9.2l-21,21C277.1,111.3,275.5,112,273.7,112z"/>
	</g>
	<g>
		<path class="st2" d="M273.7,146.8c-1.7,0-3.3-0.6-4.6-1.9l-12.4-12.4c-2.5-2.5-2.5-6.7,0-9.2c2.5-2.5,6.7-2.5,9.2,0l7.8,7.8
			l16.4-16.4c2.5-2.5,6.7-2.5,9.2,0c2.5,2.5,2.5,6.7,0,9.2l-21,21C277.1,146.2,275.4,146.8,273.7,146.8z"/>
	</g>
</g>
</svg>
