<?xml version="1.0" encoding="utf-8"?>
<!-- Generator: Adobe Illustrator 24.3.0, SVG Export Plug-In . SVG Version: 6.00 Build 0)  -->
<svg version="1.1" id="Ebene_1" xmlns="http://www.w3.org/2000/svg" xmlns:xlink="http://www.w3.org/1999/xlink" x="0px" y="0px"
	 viewBox="0 0 490 200" style="enable-background:new 0 0 490 200;" xml:space="preserve">
<style type="text/css">
	.st0{fill:none;}
	.st1{fill:#FFFFFF;}
	.st2{fill:#599EFF;}
</style>
<g>
	<rect x="0" y="0" class="st0" width="490" height="200"/>
</g>
<g>
	<path class="st1" d="M317.6,81.4c0-10.2,8.3-18.5,18.5-18.5V39.1c0-2.7-2-4.8-4.7-4.9H185.5h-20.3h-6.6c-2.6,0-4.7,2-4.7,4.7V90
		c10.2,0,18.5,8.3,18.5,18.5c0,10.2-8.3,18.5-18.5,18.5v24c0,2.6,2,4.7,4.7,4.7h6.6h20.3h145.9c2.6,0,4.7-2,4.7-4.7V99.9
		C325.8,99.9,317.6,91.6,317.6,81.4z"/>
</g>
<g>
	<circle class="st1" cx="153.9" cy="108.5" r="9.9"/>
</g>
<g>
	<circle class="st2" cx="193.7" cy="108.5" r="7.1"/>
</g>
<g>
	<circle class="st2" cx="207.9" cy="64.4" r="7.1"/>
</g>
<g>
	<circle class="st2" cx="242.5" cy="94.9" r="7.1"/>
</g>
<g>
	<circle class="st2" cx="257.8" cy="52.1" r="7.1"/>
</g>
<g>
	<circle class="st2" cx="300.8" cy="64.4" r="7.1"/>
</g>
<g>
	<circle class="st1" cx="336.1" cy="81.4" r="9.9"/>
</g>
<g>
	<path class="st2" d="M157.9,86.7V63.2c0-2.2-1.8-4-4-4s-4,1.8-4,4v23.5c-10.4,1.9-18.2,10.9-18.2,21.8c0,12.3,9.9,22.2,22.2,22.2
		c12.3,0,22.2-9.9,22.2-22.2C176.1,97.6,168.3,88.6,157.9,86.7z M153.9,123.7c-8.4,0-15.2-6.8-15.2-15.2c0-8.4,6.8-15.2,15.2-15.2
		c8.4,0,15.2,6.8,15.2,15.2C169.1,116.9,162.3,123.7,153.9,123.7z"/>
</g>
<g>
	<path class="st2" d="M332.1,103.2v23.5c0,2.2,1.8,4,4,4s4-1.8,4-4v-23.5c10.4-1.9,18.2-10.9,18.2-21.8c0-12.3-9.9-22.2-22.2-22.2
		c-12.3,0-22.2,9.9-22.2,22.2C313.9,92.3,321.7,101.3,332.1,103.2z M336.1,66.2c8.4,0,15.2,6.8,15.2,15.2c0,8.4-6.8,15.2-15.2,15.2
		c-8.4,0-15.2-6.8-15.2-15.2C320.9,73,327.7,66.2,336.1,66.2z"/>
</g>
<g>
	<path class="st2" d="M207.3,106.8c-1.1,0-2.1-0.7-2.4-1.8c-0.4-1.3,0.4-2.7,1.7-3.1l21-6.2c1.3-0.4,2.7,0.4,3.1,1.7
		c0.4,1.3-0.4,2.7-1.7,3.1l-21,6.2C207.8,106.7,207.6,106.8,207.3,106.8z"/>
</g>
<g>
	<path class="st2" d="M197.4,98.2c-0.2,0-0.5,0-0.7-0.1c-1.3-0.4-2.1-1.8-1.6-3.1l5.7-18.2c0.4-1.3,1.8-2.1,3.1-1.6
		c1.3,0.4,2.1,1.8,1.6,3.1l-5.7,18.2C199.4,97.5,198.4,98.2,197.4,98.2z"/>
</g>
<g>
	<path class="st2" d="M247.9,85.1c-0.2,0-0.5,0-0.7-0.1c-1.3-0.4-2.1-1.8-1.6-3.1l5.7-18.2c0.4-1.3,1.8-2.1,3.1-1.6
		c1.3,0.4,2.1,1.8,1.6,3.1l-5.7,18.2C250,84.4,249,85.1,247.9,85.1z"/>
</g>
<g>
	<path class="st2" d="M287.3,62.1c-0.2,0-0.5,0-0.7-0.1l-15.6-4.9c-1.3-0.4-2.1-1.8-1.6-3.1c0.4-1.3,1.8-2.1,3.1-1.6l15.6,4.9
		c1.3,0.4,2.1,1.8,1.6,3.1C289.3,61.4,288.3,62.1,287.3,62.1z"/>
</g>
<g>
	<path class="st2" d="M220.8,62.1c-1.1,0-2.1-0.8-2.4-1.9c-0.3-1.3,0.5-2.7,1.8-3l22.3-5.6c1.3-0.3,2.7,0.5,3,1.8
		c0.3,1.3-0.5,2.7-1.8,3L221.4,62C221.2,62.1,221,62.1,220.8,62.1z"/>
</g>
</svg>
