<?xml version="1.0" encoding="utf-8"?>
<!-- Generator: Adobe Illustrator 24.3.0, SVG Export Plug-In . SVG Version: 6.00 Build 0)  -->
<svg version="1.1" id="Ebene_1" xmlns="http://www.w3.org/2000/svg" xmlns:xlink="http://www.w3.org/1999/xlink" x="0px" y="0px"
	 viewBox="0 0 490 200" style="enable-background:new 0 0 490 200;" xml:space="preserve">
<style type="text/css">
	.st0{fill:none;}
	.st1{fill:#FFFFFF;}
	.st2{fill:#599EFF;}
</style>
<g>
	<rect x="0" y="0" class="st0" width="490" height="200"/>
</g>
<g>
	<path class="st1" d="M237,39.1c0-2.7-2-4.8-4.7-4.9h-46.8h-20.3h-6.6c-2.6,0-4.7,2-4.7,4.7V151c0,2.6,2,4.7,4.7,4.7h6.6h20.3h46.8
		c2.6,0,4.7-2,4.7-4.7V39.1z"/>
</g>
<g>
	<path class="st1" d="M336.1,39.1c0-2.7-2-4.8-4.7-4.9h-46.8h-20.3h-6.6c-2.6,0-4.7,2-4.7,4.7V151c0,2.6,2,4.7,4.7,4.7h6.6h20.3
		h46.8c2.6,0,4.7-2,4.7-4.7V39.1z"/>
</g>
<path class="st2" d="M140.5,87.7c0-5.9,3.9-10.9,9-12.7c-3.1-1.6-5.4-4.9-5.4-8.8c0-5.4,4.4-9.8,9.8-9.8s9.8,4.4,9.8,9.8
	c0,3.9-2.3,7.2-5.4,8.8c5.4,1.8,9,6.7,9,12.7C167.4,95.1,140.5,95.1,140.5,87.7z"/>
<path class="st2" d="M218.1,44c0-5.9,3.9-10.9,9-12.7c-3.1-1.6-5.4-4.9-5.4-8.8c0-5.4,4.4-9.8,9.8-9.8c5.4,0,9.8,4.4,9.8,9.8
	c0,3.9-2.3,7.2-5.4,8.8c5.4,1.8,9,6.7,9,12.7C245,51.5,218.1,51.5,218.1,44z"/>
<path class="st2" d="M203,126.3c0-5.9,3.9-10.9,9-12.7c-3.1-1.6-5.4-4.9-5.4-8.8c0-5.4,4.4-9.8,9.8-9.8c5.4,0,9.8,4.4,9.8,9.8
	c0,3.9-2.3,7.2-5.4,8.8c5.4,1.8,9,6.7,9,12.7C229.9,133.8,203,133.8,203,126.3z"/>
<g>
	<path class="st2" d="M238.6,145.1h-44.3c-5.2,0-9.4-4.2-9.4-9.4V91.4c0-5.2,4.2-9.4,9.4-9.4h44.3c5.2,0,9.4,4.2,9.4,9.4v44.3
		C248,140.9,243.8,145.1,238.6,145.1z M194.3,87.9c-1.9,0-3.4,1.5-3.4,3.4v44.3c0,1.9,1.5,3.4,3.4,3.4h44.3c1.9,0,3.4-1.5,3.4-3.4
		V91.4c0-1.9-1.5-3.4-3.4-3.4H194.3z"/>
</g>
<path class="st1" d="M274.1,56.6h76.4c3.6,0,6.4,2.9,6.4,6.4v44.3c0,3.6-2.9,6.4-6.4,6.4h-76.4c-3.6,0-6.4-2.9-6.4-6.4V63
	C267.7,59.5,270.5,56.6,274.1,56.6z"/>
<path class="st2" d="M303.4,105.2v17.1c0,4,4.6,6.4,7.9,4.1l12.1-8.5c2.8-2,2.8-6.2,0-8.2l-12.1-8.5
	C308,98.8,303.4,101.2,303.4,105.2z"/>
<path class="st2" d="M298.9,98c0,0.6,0.2,1.1,0.4,1.6c0.9-1.7,2.3-3.2,4.1-4.1c3.2-1.6,6.9-1.4,9.8,0.7l8.5,6c2.4-0.9,4-2.3,4-4.1
	c0-5.9-3.6-10.9-9-12.7c3.1-1.6,5.4-4.9,5.4-8.8c0-5.4-4.4-9.8-9.8-9.8c-5.4,0-9.8,4.4-9.8,9.8c0,3.9,2.3,7.2,5.4,8.8
	C302.7,87.1,298.9,92,298.9,98z"/>
<path class="st2" d="M350.5,53.6h-76.4c-5.2,0-9.4,4.2-9.4,9.4v44.3c0,5.2,4.2,9.4,9.4,9.4h24.2v-6h-24.2c-1.9,0-3.4-1.5-3.4-3.4V63
	c0-1.9,1.5-3.4,3.4-3.4h76.4c1.9,0,3.4,1.5,3.4,3.4v44.3c0,1.9-1.5,3.4-3.4,3.4h-19.7c0.3,1,0.5,2,0.5,3c0,1-0.2,2-0.5,3h19.7
	c5.2,0,9.4-4.2,9.4-9.4V63C359.9,57.8,355.7,53.6,350.5,53.6z"/>
</svg>
