<?xml version="1.0" encoding="utf-8"?>
<!-- Generator: Adobe Illustrator 24.3.0, SVG Export Plug-In . SVG Version: 6.00 Build 0)  -->
<svg version="1.1" id="Ebene_1" xmlns="http://www.w3.org/2000/svg" xmlns:xlink="http://www.w3.org/1999/xlink" x="0px" y="0px"
	 viewBox="0 0 490 200" style="enable-background:new 0 0 490 200;" xml:space="preserve">
<style type="text/css">
	.st0{fill:none;}
	.st1{fill:#FFFFFF;}
	.st2{fill:#599EFF;}
</style>
<g>
	<rect class="st0" width="490" height="200"/>
</g>
<g>
	<path class="st1" d="M223,39.1c0-2.7-2-4.8-4.7-4.9h-32.8h-20.3h-6.6c-2.6,0-4.7,2-4.7,4.7V151c0,2.6,2,4.7,4.7,4.7h6.6h20.3h32.8
		c2.6,0,4.7-2,4.7-4.7V39.1z"/>
</g>
<g>
	<path class="st1" d="M336.1,39.1c0-2.7-2-4.8-4.7-4.9h-46.8h-6.3h-6.6c-2.6,0-4.7,2-4.7,4.7V151c0,2.6,2,4.7,4.7,4.7h6.6h6.3h46.8
		c2.6,0,4.7-2,4.7-4.7V39.1z"/>
</g>
<g>
	<path class="st2" d="M301.6,69.4c-1.7,0-3,1.3-3,3v45.2c0,1.7,1.3,3,3,3s3-1.3,3-3V72.4C304.6,70.7,303.2,69.4,301.6,69.4z"/>
	<path class="st2" d="M281.5,83.4c-1.2-1.1-3.1-1.1-4.2,0.1c-1.1,1.2-1.1,3.1,0.1,4.2l4.4,4.2h-90.3V72.4c0-1.7-1.3-3-3-3
		s-3,1.3-3,3v45.2c0,1.7,1.3,3,3,3s3-1.3,3-3V98h90.3l-4.4,4.2c-1.2,1.1-1.2,3-0.1,4.2c0.6,0.6,1.4,0.9,2.2,0.9
		c0.7,0,1.5-0.3,2.1-0.8l8.3-7.9c1-1,1.6-2.3,1.6-3.6c0-1.3-0.6-2.6-1.6-3.6L281.5,83.4z"/>
</g>
<path class="st2" d="M232,34.2h26c2,0,3.7,1.6,3.7,3.7v45.5c0,2-1.6,3.7-3.7,3.7h-26c-2,0-3.7-1.6-3.7-3.7V37.9
	C228.3,35.8,230,34.2,232,34.2z"/>
<path class="st2" d="M232,102.9h26c2,0,3.7,1.6,3.7,3.7V152c0,2-1.6,3.7-3.7,3.7h-26c-2,0-3.7-1.6-3.7-3.7v-45.5
	C228.3,104.5,230,102.9,232,102.9z"/>
<path class="st1" d="M231.6,72.4c0-5.9,3.9-10.9,9-12.7c-3.1-1.6-5.4-4.9-5.4-8.8c0-5.4,4.4-9.8,9.8-9.8s9.8,4.4,9.8,9.8
	c0,3.9-2.3,7.2-5.4,8.8c5.4,1.8,9,6.7,9,12.7C258.5,79.8,231.6,79.8,231.6,72.4z"/>
</svg>
