<?xml version="1.0" encoding="utf-8"?>
<!-- Generator: Adobe Illustrator 24.3.0, SVG Export Plug-In . SVG Version: 6.00 Build 0)  -->
<svg version="1.1" id="Ebene_1" xmlns="http://www.w3.org/2000/svg" xmlns:xlink="http://www.w3.org/1999/xlink" x="0px" y="0px"
	 viewBox="0 0 490 200" style="enable-background:new 0 0 490 200;" xml:space="preserve">
<style type="text/css">
	.st0{fill:none;}
	.st1{fill:#FFFFFF;}
	.st2{fill:#599EFF;}
	.st3{fill:none;stroke:#599EFF;stroke-width:4;stroke-linejoin:round;stroke-miterlimit:10;}
</style>
<rect class="st0" width="490" height="200"/>
<path class="st1" d="M153.8,69.8V38.9c0-2.7,2.1-4.7,4.7-4.7h75.4h20.3h75.4c2.7,0.1,4.7,2.2,4.7,4.9v64.6l17,17h-17V151
	c0,2.7-2.1,4.7-4.7,4.7h-75.4h-20.3h-75.4c-2.7,0-4.7-2.1-4.7-4.7V86.8l-17-17H153.8z"/>
<g>
	<g>
		<g>
			<path class="st2" d="M180.4,77.4c0-4.2,2.8-7.7,6.4-9c-2.2-1.1-3.8-3.5-3.8-6.2c0-3.8,3.1-6.9,6.9-6.9c3.8,0,6.9,3.1,6.9,6.9
				c0,2.8-1.6,5.1-3.8,6.2c3.8,1.3,6.4,4.7,6.4,9C199.5,82.7,180.4,82.7,180.4,77.4z"/>
			<g>
				<path class="st2" d="M205.6,90.7h-31.4c-3.7,0-6.7-3-6.7-6.7V52.7c0-3.7,3-6.7,6.7-6.7h31.4c3.7,0,6.7,3,6.7,6.7V84
					C212.3,87.7,209.3,90.7,205.6,90.7z M174.2,50.2c-1.3,0-2.4,1.1-2.4,2.4V84c0,1.3,1.1,2.4,2.4,2.4h31.4c1.3,0,2.4-1.1,2.4-2.4
					V52.7c0-1.3-1.1-2.4-2.4-2.4L174.2,50.2L174.2,50.2z"/>
			</g>
		</g>
	</g>
	<g>
		<g>
			<path class="st2" d="M234.5,77.4c0-4.2,2.8-7.7,6.4-9c-2.2-1.1-3.8-3.5-3.8-6.2c0-3.8,3.1-6.9,6.9-6.9s6.9,3.1,6.9,6.9
				c0,2.8-1.6,5.1-3.8,6.2c3.8,1.3,6.4,4.7,6.4,9C253.6,82.7,234.5,82.7,234.5,77.4z"/>
			<g>
				<path class="st2" d="M259.7,90.7h-31.4c-3.7,0-6.7-3-6.7-6.7V52.7c0-3.7,3-6.7,6.7-6.7h31.4c3.7,0,6.7,3,6.7,6.7V84
					C266.4,87.7,263.4,90.7,259.7,90.7z M228.4,50.2c-1.3,0-2.4,1.1-2.4,2.4V84c0,1.3,1.1,2.4,2.4,2.4h31.4c1.3,0,2.4-1.1,2.4-2.4
					V52.7c0-1.3-1.1-2.4-2.4-2.4L228.4,50.2L228.4,50.2z"/>
			</g>
		</g>
	</g>
	<g>
		<g>
			<path class="st2" d="M288.6,130.6c0-4.2,2.8-7.7,6.4-9c-2.2-1.1-3.8-3.5-3.8-6.2c0-3.8,3.1-6.9,6.9-6.9c3.8,0,6.9,3.1,6.9,6.9
				c0,2.8-1.6,5.1-3.8,6.2c3.8,1.3,6.4,4.7,6.4,9C307.7,135.9,288.6,135.9,288.6,130.6z"/>
			<g>
				<path class="st2" d="M313.9,143.9h-31.4c-3.7,0-6.7-3-6.7-6.7v-31.4c0-3.7,3-6.7,6.7-6.7h31.4c3.7,0,6.7,3,6.7,6.7v31.4
					C320.5,140.9,317.5,143.9,313.9,143.9z M282.5,103.4c-1.3,0-2.4,1.1-2.4,2.4v31.4c0,1.3,1.1,2.4,2.4,2.4h31.4
					c1.3,0,2.4-1.1,2.4-2.4v-31.3c0-1.3-1.1-2.4-2.4-2.4L282.5,103.4L282.5,103.4z"/>
			</g>
		</g>
	</g>
</g>
<g>
	<path class="st2" d="M182.9,139.6h-5.5c-3.1,0-5.5-2.5-5.5-5.5v-5.5c0-3.1,2.5-5.5,5.5-5.5h5.5c3.1,0,5.5,2.5,5.5,5.5v5.5
		C188.5,137.1,186,139.6,182.9,139.6z M177.4,126.9c-0.8,0-1.5,0.7-1.5,1.5v5.5c0,0.8,0.7,1.5,1.5,1.5h5.5c0.8,0,1.5-0.7,1.5-1.5
		v-5.5c0-0.8-0.7-1.5-1.5-1.5H177.4z"/>
</g>
<g>
	<path class="st2" d="M246.8,139.6h-5.5c-3.1,0-5.5-2.5-5.5-5.5v-5.5c0-3.1,2.5-5.5,5.5-5.5h5.5c3.1,0,5.5,2.5,5.5,5.5v5.5
		C252.3,137.1,249.8,139.6,246.8,139.6z M241.2,126.9c-0.8,0-1.5,0.7-1.5,1.5v5.5c0,0.8,0.7,1.5,1.5,1.5h5.5c0.8,0,1.5-0.7,1.5-1.5
		v-5.5c0-0.8-0.7-1.5-1.5-1.5H241.2z"/>
</g>
<g>
	<path class="st2" d="M202.5,120h-5.5c-3.1,0-5.5-2.5-5.5-5.5v-5.5c0-3.1,2.5-5.5,5.5-5.5h5.5c3.1,0,5.5,2.5,5.5,5.5v5.5
		C208,117.5,205.5,120,202.5,120z M196.9,107.4c-0.8,0-1.5,0.7-1.5,1.5v5.5c0,0.8,0.7,1.5,1.5,1.5h5.5c0.8,0,1.5-0.7,1.5-1.5v-5.5
		c0-0.8-0.7-1.5-1.5-1.5H196.9z"/>
</g>
<path class="st3" d="M180.2,124.9v-8.2c0-2.8,2.3-5.1,5.1-5.1h8"/>
<path class="st3" d="M253.5,88.4v16.5c0,2.8,2.3,5.1,5.1,5.1l19.2,0"/>
<path class="st3" d="M244.1,124.9v-8.2c0-2.8-2.3-5.1-5.1-5.1h-32.5"/>
<line class="st3" x1="199.4" y1="105.4" x2="199.4" y2="88.4"/>
<g>
	<g>
		<path class="st2" d="M316.2,75.3v5.5c0,3.1-2.5,5.5-5.5,5.5h-5.5c-3.1,0-5.5-2.5-5.5-5.5v-5.5c0-3.1,2.5-5.5,5.5-5.5h5.5
			C313.7,69.8,316.2,72.2,316.2,75.3z M303.6,80.8c0,0.8,0.7,1.5,1.5,1.5h5.5c0.8,0,1.5-0.7,1.5-1.5v-5.5c0-0.8-0.7-1.5-1.5-1.5
			h-5.5c-0.8,0-1.5,0.7-1.5,1.5V80.8z"/>
	</g>
	<g>
		<path class="st2" d="M296.7,55.7v5.5c0,3.1-2.5,5.5-5.5,5.5h-5.5c-3.1,0-5.5-2.5-5.5-5.5v-5.5c0-3.1,2.5-5.5,5.5-5.5h5.5
			C294.2,50.2,296.7,52.7,296.7,55.7z M284,61.3c0,0.8,0.7,1.5,1.5,1.5h5.5c0.8,0,1.5-0.7,1.5-1.5v-5.5c0-0.8-0.7-1.5-1.5-1.5h-5.5
			c-0.8,0-1.5,0.7-1.5,1.5V61.3z"/>
	</g>
	<path class="st3" d="M301.6,78.1h-8.2c-2.8,0-5.1-2.3-5.1-5.1v-8"/>
</g>
</svg>
