<?xml version="1.0" encoding="utf-8"?>
<!-- Generator: Adobe Illustrator 24.2.3, SVG Export Plug-In . SVG Version: 6.00 Build 0)  -->
<svg version="1.1"
	 id="root" inkscape:output_extension="org.inkscape.output.svg.inkscape" inkscape:version="0.45.1" sodipodi:docbase="C:\Documents and Settings\102517\Desktop" sodipodi:docname="Faber2.svg" sodipodi:version="0.32" xmlns:cc="http://web.resource.org/cc/" xmlns:dc="http://purl.org/dc/elements/1.1/" xmlns:inkscape="http://www.inkscape.org/namespaces/inkscape" xmlns:rdf="http://www.w3.org/1999/02/22-rdf-syntax-ns#" xmlns:sodipodi="http://sodipodi.sourceforge.net/DTD/sodipodi-0.dtd" xmlns:svg="http://www.w3.org/2000/svg"
	 xmlns="http://www.w3.org/2000/svg" xmlns:xlink="http://www.w3.org/1999/xlink" x="0px" y="0px" viewBox="0 0 178 60"
	 style="enable-background:new 0 0 178 60;" xml:space="preserve">
<style type="text/css">
	.st0{fill-rule:evenodd;clip-rule:evenodd;fill:none;}
	.st1{fill-rule:evenodd;clip-rule:evenodd;fill:#FFFFFF;}
</style>
<rect y="-0.1" class="st0" width="178" height="60"/>
<sodipodi:namedview  bordercolor="#666666" borderopacity="1.0" gridtolerance="10.0" guidetolerance="10.0" height="60px" id="base" inkscape:current-layer="root" inkscape:cx="175.7587" inkscape:cy="75.5" inkscape:pageopacity="0.0" inkscape:pageshadow="2" inkscape:window-height="747" inkscape:window-width="1280" inkscape:window-x="-4" inkscape:window-y="-4" inkscape:zoom="2" objecttolerance="10.0" pagecolor="#ffffff" units="cm" width="178px">
	</sodipodi:namedview>
<g id="g2210" transform="matrix(3.1295001,0,0,3.1295001,-201.6154,-224.28643)">
	<g>
		<g id="g2212" transform="matrix(1,0,0,-1,0,200)">
			<g id="g2214" transform="scale(0.4,0.4)">
				<path id="path2216" class="st1" d="M237.1,286.1c-0.3-0.2-0.6-0.4-1-0.6c-0.4-0.2-2.1-0.9-3.7-0.9c-1.5,0-2.6,0.6-3.1,0.9
					c-1.8,1.1-2.5,2.9-2.8,4.8c-0.1,0.8-0.1,1.7-0.1,1.9c0,3.1,0.9,4.8,1.9,5.9c0.6,0.5,1.8,1.6,3.8,1.6c1.2,0,2.8-0.2,3.8-0.7
					c0.1-0.1,0.6-0.4,0.9-0.6l0.1-1.4h0.4c0,0.3,0,0.6,0,0.9c0,0.6,0,1.3,0,1.9h-0.5c-0.9,0-1.1,0.1-2,0.2c-1,0.1-1.6,0.1-2.1,0.1
					c-3.8,0-5.7-1.8-6.6-3c-1.5-2-1.6-4.3-1.6-5.1c0-0.9,0.1-4.4,2.8-6.6c1.8-1.5,3.7-1.5,4.6-1.5c2.5,0,4.2,1,5,1.4L237.1,286.1"/>
				<path id="path2218" class="st1" d="M182.6,288.6c-1.4,0-2.7,0-4.2,0c0.3,0.7,0.6,1.4,0.9,2c0.5,1.1,0.8,1.8,1.3,2.9
					c0.3-0.8,0.5-1.2,0.8-2C181.8,290.5,182.2,289.6,182.6,288.6z M178.1,284.4c-0.4,0-0.9,0-1.3,0.1c0.3,0.9,0.7,1.9,1.1,2.8
					c0.1,0.3,0.3,0.6,0.4,0.9c1.6,0,3,0.1,4.5,0c0.2-0.6,0.5-1.2,0.7-1.8c0.2-0.6,0.4-1.3,0.6-1.9c-0.4,0-0.7-0.1-1.2-0.1v-0.4
					c1.3,0,2.7,0,4.1,0v0.4c-0.4,0-0.7,0-1,0.1c-1.3,2.6-2.4,5.3-3.4,8c-0.3,0.9-0.7,1.7-0.9,2.6h-0.7c-0.1-0.3-0.2-0.6-0.4-0.9
					c-0.3-0.7-0.7-1.4-1-2.1c-0.4-0.7-0.7-1.5-1.1-2.2c-0.4-0.8-0.8-1.5-1.2-2.2c-0.5-0.9-1-1.8-1.5-2.7c-0.1-0.2-0.2-0.4-0.3-0.5
					c-0.4,0-0.8,0-1.2-0.1l0-0.4c1.3,0,2.6,0,3.9,0V284.4"/>
				<path id="path2220" class="st1" d="M246,288.7c-1.4,0-2.7,0-4.2,0c0.3,0.7,0.6,1.4,0.9,2c0.5,1.1,0.8,1.8,1.3,2.9
					c0.3-0.8,0.6-1.2,0.8-2C245.2,290.6,245.6,289.7,246,288.7z M241.5,284.5c-0.4,0-0.9,0-1.3,0.1c0.3,0.9,0.7,1.9,1.1,2.8
					c0.1,0.3,0.3,0.6,0.4,0.9c1.6,0,3,0.1,4.5,0c0.2-0.6,0.5-1.2,0.7-1.8c0.2-0.6,0.4-1.3,0.6-1.9c-0.4,0-0.7-0.1-1.2-0.1v-0.4
					c1.3,0,2.7,0,4.1,0v0.4c-0.4,0-0.7,0-1,0.1c-1.3,2.6-2.4,5.3-3.4,8c-0.3,0.9-0.7,1.7-0.9,2.6h-0.7c-0.1-0.3-0.2-0.6-0.4-0.9
					c-0.3-0.7-0.7-1.4-1-2.1c-0.4-0.7-0.7-1.5-1.1-2.2c-0.4-0.8-0.8-1.5-1.2-2.2c-0.5-0.9-1-1.8-1.5-2.7c-0.1-0.2-0.2-0.4-0.3-0.5
					c-0.4,0-0.8,0-1.2-0.1l0-0.4c1.3,0,2.6,0,3.9,0V284.5"/>
				<path id="path2222" class="st1" d="M278.6,286.1c0-0.4,0-0.9-0.1-1c-0.1-0.1-0.2-0.1-0.4-0.1c-1.2-0.2-2.8-0.3-2.9-0.3
					c-0.4,0-0.8,0-1.1,0c-0.1,0.4-0.1,0.7-0.1,1c0,0.4,0,0.9,0,1.3c0,0.8,0,1.5,0,2.3c1.1,0,1.7,0,2,0c0.3,0,0.7-0.2,0.7-0.2
					c0.1-0.1,0.3-0.2,0.3-0.3c0-0.2,0-0.5,0.1-0.7l0.4,0c0,0.4,0,0.8,0,1.2c0,0.6,0,1.1,0.1,1.7H277c0-0.1,0-0.8-0.1-0.9
					c-0.1-0.1-0.2-0.1-0.3-0.1c-0.9-0.2-1.8-0.1-2.7-0.1c0,0.6,0,1.1,0,1.7c0,1,0,2,0.1,3.1c0.3,0,0.5,0,0.8,0
					c1.4,0,2.3-0.2,2.8-0.3c0.6-0.1,0.6-0.5,0.6-1.2h0.4c0,0.6,0,1.3,0,1.9c-0.8,0-1.5,0-2.3,0c-0.9,0-1.9,0-2.8,0
					c-0.8,0-1.6,0-2.4,0l0-0.4c0.4,0,0.9,0,1.3-0.1c0.1-0.7,0.1-1.3,0.1-2c0-0.8,0-1.6,0-2.4c0-0.9,0-1.8,0-2.6c0-0.8,0-1.5-0.1-2.3
					c0-0.3,0-0.5-0.1-0.8c-0.5,0-1.1,0-1.6,0v-0.4c0.1,0,0.2,0,0.3,0c1.2,0,2.4,0,3.6,0h1.1c0.5,0,1.1,0,1.6,0c0.5,0,1,0,1.5-0.1
					c0,0.6,0,1.3,0,1.9H278.6"/>
				<path id="path2224" class="st1" d="M288.1,286.2c0-0.3,0-0.8-0.1-1.1c-0.4-0.1-0.8-0.2-1.3-0.2c-1.5-0.2-2.2-0.2-2.9-0.2
					c-0.1,0.6-0.1,1.2-0.1,1.8c0,0.6,0,1.3,0,1.9v2.1c0,0.9,0,1.9,0.1,2.8c0,0.5,0.1,0.9,0.1,1.4c0.4,0,0.9,0.1,1.3,0.1v0.4
					c-0.5,0-1.4,0-1.9,0c-0.8,0-1.7,0-2.5,0l0-0.4c0.5,0,0.9-0.1,1.4-0.1c0.1-1.2,0.2-2.4,0.2-3.6c0-1.1,0-2.2,0-3.3
					c0-1.7,0-2-0.2-3c-0.5,0-1,0-1.5,0l0-0.5c1.2,0,2.3,0,3.5,0c1.5,0,2.9,0,4.4,0c0,0.3,0,0.6,0,0.8c0,0.4,0,0.9,0,1.2H288.1"/>
				<path id="path2226" class="st1" d="M297.6,286.2c0-0.3,0-0.8-0.1-1.1c-0.4-0.1-0.9-0.2-1.3-0.2c-1.5-0.2-2.2-0.2-2.9-0.2
					c-0.1,0.6-0.1,1.2-0.1,1.8c0,0.6,0,1.3,0,1.9v2.1c0,0.9,0,1.9,0.1,2.8c0,0.5,0.1,0.9,0.1,1.4c0.4,0,0.9,0.1,1.3,0.1v0.4
					c-0.5,0-1.4,0-1.9,0c-0.8,0-1.7,0-2.5,0l0-0.4c0.5,0,0.9-0.1,1.4-0.1c0.1-1.2,0.2-2.4,0.2-3.6c0-1.1,0-2.2,0-3.3
					c0-1.7,0-2-0.2-3c-0.4,0-1,0-1.5,0l0-0.5c1.2,0,2.3,0,3.5,0c1.5,0,2.9,0,4.4,0c0,0.3,0,0.6,0,0.8c0,0.4,0,0.9,0,1.2H297.6"/>
				<path id="path2228" class="st1" d="M188.2,284c0.5,0,1.1,0,1.6,0c0.4,0,0.9,0,1.4,0c0.4,0,0.9,0,1.3,0c0.5,0,1.7,0,3,0.7
					c0.4,0.2,0.6,0.5,0.7,0.6c0.4,0.5,0.6,1.2,0.6,1.8c0,0.6-0.3,1.1-0.4,1.4c-0.3,0.5-0.8,0.9-2.2,1.2c-0.3,0-0.6,0.1-0.9,0.1
					l0,0.1c0.1,0,0.2,0,0.3,0.1c0.5,0.1,0.9,0.3,1.1,0.4c0.5,0.3,1.4,0.9,1.4,2.2c0,0.6-0.2,1.1-0.3,1.3c-0.1,0.1-0.2,0.4-0.6,0.6
					c-0.8,0.6-2,0.6-2.2,0.6c-0.5,0-0.9,0-1.4,0c-0.6,0-1.2,0-1.7,0c-0.6,0-1.1,0-1.6,0l0-0.4c0.4,0,1,0,1.4-0.1
					c0.1-1.2,0.1-2.5,0.1-3.7c0-1.2,0-2.3,0-3.5c0-1,0-1.9-0.1-2.9c-0.4,0-0.9,0-1.3-0.1V284z M191.1,294.5c0.5,0.1,0.9,0.1,1.4,0.1
					c0.7,0,0.3,0,0.6-0.1c0.3-0.1,0.6-0.4,0.7-0.4c0.7-0.6,0.7-1.4,0.7-1.7c0-1-0.6-2-1.7-2.4c-0.7-0.2-0.8-0.1-0.9-0.1
					c-0.3,0-0.5,0-0.8,0c0,0.4,0,0.9,0,1.3c0,0.3,0,0.6,0,0.8c0,0.5,0,1,0,1.5C191,293.8,191,294.1,191.1,294.5z M191,289.4
					c0.4,0,0.8,0,1.2,0c1.6,0,1.9-0.4,2.4-0.9c0.4-0.4,0.5-1,0.5-1.5c0-0.2,0-2-1.7-2.5c-0.4-0.1-0.2-0.1-1.1-0.1
					c-0.6,0-1,0.1-1.2,0.1c-0.1,0.7-0.1,1.3-0.1,2C190.9,287.5,190.9,288.4,191,289.4"/>
				<path id="path2230" class="st1" d="M219.4,284.5c-0.3,0-0.6,0-1,0c-0.2,0.2-0.4,0.3-0.6,0.5c-0.5,0.5-1,1-1.5,1.5
					c-0.4,0.4-0.6,0.8-1.1,1.2c-0.4,0.4-0.8,0.8-1.1,1.2c-0.2,0.2-0.4,0.4-0.6,0.6c0.1,0,0.4,0.1,0.8,0.2c0.5,0.1,0.7,0.2,1.1,0.4
					c0.5,0.3,1.6,0.9,1.6,2.3c0,0.6-0.2,1.1-0.4,1.3c-0.1,0.1-0.3,0.5-0.7,0.7c-0.9,0.6-2.2,0.5-2.3,0.5c-0.6,0-1.1,0-1.7,0
					c-1,0-2.1,0-3.1,0l0-0.4c0.5,0,0.9-0.1,1.4-0.1c0.1-1.1,0.1-2.1,0.1-3.2c0-1.2,0-2.3,0-3.5v-1.4c0-0.6-0.1-1.3-0.2-1.9
					c-0.4,0-0.9,0-1.3,0l0-0.4c0.5,0,1,0,1.6,0c0.9,0,1.9,0,2.8,0l0,0.4c-0.4,0-0.9,0-1.3,0c-0.1,0.7-0.1,1.3-0.2,2
					c0,0.6,0,1.2,0,1.8c0,0.4,0,0.9,0,1.3l0,0c1-0.9,1.7-1.7,2.6-2.6c0.9-0.9,1.7-1.8,2.5-2.8c0.8,0,1.8,0,2.6-0.1L219.4,284.5z
					 M211.9,294.5c0.5,0,0.4,0.1,0.9,0.1c0.6,0,0.9,0,1.1,0c0.6-0.2,1.5-0.7,1.5-2c0-0.6-0.2-1.3-0.7-1.8c-0.3-0.3-0.7-0.4-0.9-0.5
					c-1.1-0.4-1.9-0.3-2.3-0.3c0,0.6,0,1.3,0,1.9C211.8,292.8,211.8,293.6,211.9,294.5"/>
				<path id="path2232" class="st1" d="M171.3,284.6c-0.6,0-1.1,0-1.7,0c-0.1,1.1-0.1,2.2-0.1,3.3c0,1.3,0,2.5,0,3.8
					c0.2,0,0.4,0,0.5,0c1.3,0,2.7-0.2,3-0.3c0.1,0,0.4-0.1,0.5-0.2c0.2-0.2,0.2-0.8,0.2-1.5l0.5,0c0,0.6,0,1.2,0,1.9
					c0,0.8,0,1.6,0,2.4l-0.5,0c0-0.6,0-1.2-0.2-1.3c-0.1-0.1-0.5-0.2-0.5-0.2c-1.4-0.3-3.4-0.3-3.6-0.2c0,1.2,0,2.5,0,3.7
					c0,1.1,0.1,2.1,0.2,3.2c0.4,0,0.9,0,1.3,0c1.6,0,3-0.2,3.5-0.3c0,0,0.4-0.1,0.6-0.2c0.3-0.1,0.3-0.4,0.3-0.5
					c0.1-0.2,0.1-0.4,0.1-0.8h0.5c0,0.7,0,1.5,0,2.3c-1.3,0-2.5,0-3.8,0c-1.9,0-3.9,0-5.8,0l0-0.5c0.5,0,1.1-0.1,1.7-0.2
					c0.1-1.1,0.1-2.2,0.1-3.3c0-1.7,0-3.3,0-4.9c0-2,0-4.1-0.2-6.1c-0.5,0-1,0-1.5-0.1V284c0.7,0,1.5,0.1,2.2,0.1
					c0.9,0,1.8,0,2.7-0.1L171.3,284.6"/>
				<path id="path2234" class="st1" d="M206.4,286c0-0.4,0-0.9-0.1-1c-0.1-0.1-0.2-0.1-0.4-0.1c-1.2-0.2-2.8-0.3-2.9-0.3
					c-0.4,0-0.8,0-1.1,0c-0.1,0.4-0.1,0.7-0.1,1c0,0.4,0,0.9,0,1.3c0,0.8,0,1.5,0,2.3c1.1,0,1.7,0,2,0c0.3,0,0.7-0.2,0.7-0.2
					c0.1-0.1,0.3-0.2,0.3-0.3c0-0.2,0-0.5,0.1-0.7l0.4,0c0,0.4,0,0.8,0,1.2c0,0.6,0,1.1,0.1,1.7h-0.4c0-0.1,0-0.8-0.1-0.9
					c-0.1-0.1-0.2-0.1-0.3-0.1c-0.9-0.2-1.8-0.1-2.7-0.1c0,0.6,0,1.1,0,1.7c0,1,0,2,0.1,3.1c0.3,0,0.5,0,0.8,0
					c1.4,0,2.3-0.2,2.8-0.3c0.6-0.1,0.6-0.5,0.6-1.2h0.4c0,0.6,0,1.3,0,1.9c-0.8,0-1.5,0-2.3,0c-0.9,0-1.9,0-2.8,0
					c-0.8,0-1.6,0-2.4,0l0-0.4c0.4,0,0.9,0,1.3-0.1c0.1-0.7,0.1-1.3,0.1-2c0-0.8,0-1.6,0-2.4c0-0.9,0-1.8,0-2.6c0-0.8,0-1.5-0.1-2.3
					c0-0.3,0-0.5-0.1-0.8c-0.5,0-1.1,0-1.6,0v-0.4c0.1,0,0.2,0,0.3,0c1.2,0,2.4,0,3.6,0h1.1c0.5,0,1.1,0,1.6,0c0.5,0,1,0,1.5-0.1
					c0,0.6,0,1.3,0,1.9H206.4"/>
				<path id="path2236" class="st1" d="M218.2,289.4c1.7,0,3.4,0,5.1,0l0,0.5h-2c-1.1,0-2.1,0-3.1,0V289.4"/>
				<path id="path2238" class="st1" d="M257.6,293.3c0,0.6,0,1.1,0,1.7c-1,0.2-1.5,0.2-2,0.2c-0.6,0-2.8,0-3.8-1.6
					c-0.4-0.6-0.4-1.2-0.4-1.4c0-0.4,0-1,0.8-1.8c0.2-0.2,0.5-0.5,1-0.7c0.6-0.2,0.9-0.4,1.5-0.6c1-0.3,1.9-0.5,2.5-1.3
					c0.3-0.5,0.3-1,0.3-1.1c0-0.9-0.4-1.3-0.7-1.6c-0.6-0.5-1.2-0.7-2.1-0.7c-1,0-1.8,0.3-2.1,0.4c-0.2,0.1-0.4,0.2-0.5,0.3
					c-0.1,0.4-0.1,0.7-0.2,1.1l-0.4,0c0-0.3,0-0.6,0-1c0-0.3,0-0.6,0-1c0.5-0.1,1.2-0.2,2.4-0.2c1.9,0,2.9,0.4,3.6,0.8
					c1,0.6,1.4,1.4,1.4,2.4c0,1.4-1.1,2-1.6,2.3c-0.6,0.3-1.3,0.5-1.6,0.6c-1,0.3-2,0.5-2.6,1.4c-0.3,0.5-0.3,0.9-0.3,1.1
					c0,1.2,0.8,2.1,2.2,2.2c0.8,0,1.6-0.2,1.8-0.3c0.1,0,0.1-0.1,0.2-0.2c0-0.3,0.1-0.7,0.1-1H257.6"/>
				<path id="path2240" class="st1" d="M269.3,293.1c0,0.6,0,1.4,0,1.9c-1.6,0-3.1-0.1-4.7-0.1c-1.5,0-3.1,0.1-4.6,0.1
					c0-0.6-0.1-1.4-0.1-1.9h0.5c0,0.3,0.1,0.8,0.1,1.1c1.3,0.3,1.7,0.2,3.3,0.2c0-0.5,0.1-0.8,0.1-1.3c0-0.8,0-1.6,0-2.5
					c0-0.8,0-1.6,0-2.4c0-1.2-0.1-2.5-0.2-3.7c-0.5,0-0.9,0-1.4,0v-0.4c0.5,0,1,0,1.5,0c0.9,0,1.9,0,2.8,0l0,0.4c-0.4,0-0.9,0-1.4,0
					c0,0.7-0.1,1.4-0.1,2.1c0,1.2,0,2.3,0,3.5c0,1,0,2,0.1,3c0,0.5,0.1,0.8,0.1,1.3c1.8,0,2.2,0,3.3-0.2c0-0.3,0.1-0.8,0.1-1.2
					H269.3"/>
				<path id="path2242" class="st1" d="M228.1,315.5c0,0.2,0.1,0.2,0.3,0.2c0.2,0,0.3,0,0.3-0.2c0-0.2-0.2-0.4-0.3-0.4
					C228.3,315.2,228.1,315.4,228.1,315.5"/>
				<path id="path2244" class="st1" d="M225.8,314.5c0,0-0.5,0-0.5-0.4c0-0.4,0.4-0.4,0.4-0.4s0.1,0,0.1-0.1c0-0.1-0.4-0.6,0.1-0.8
					c0.5-0.2,1.1,0.3,1.3,0.4c0.1,0.1,0.5,0.5,0.7,0.5c0.2,0,0.4,0,0.4-0.1c0-0.1-0.4-0.2-0.5-0.4c-0.1-0.2,0-0.6,0-0.6
					s-0.1-0.1-0.1-0.2c0-0.1,0.1,0,0.1-0.1c0-0.1-0.4-0.5-0.5-0.6c0-0.1-0.1-0.4-0.1-0.4c0,0.1,0.1-0.7,0.4-0.7
					c0.2,0,1.2,0.4,1.2,0.5c0.1,0.1,0.1,0.4,0.1,0.6c-0.1,0.3-0.2,0.3-0.1,0.4c0,0.1,0.1,0.3,0.4,0.4c0.1,0,0.1,0.2,0,0.2
					c-0.3,0-0.6,0-0.6,0.1c0,0.1,0.5,0.1,0.5,0.2c0,0.1-0.4,0.2-0.4,0.4c0,0.1,0.3,0.3,0.3,0.3c0,0-0.2,0.1-0.2,0.2c0,0.3,0,1-0.1,1
					c-0.1,0.1-0.3,0.1-0.3,0c0-0.1-0.1-0.9-0.2-1c-0.1-0.1-0.7-0.2-0.9-0.3c-0.2-0.1-0.6-0.4-0.8-0.4c-0.2,0-0.4,0-0.4,0.3
					c0,0.2,1.3,0.3,1.3,0.4c0,0.1-1.5,0.1-1.5,0.4C225.7,314.4,225.8,314.5,225.8,314.5z M228,312.1c0,0,0-0.3,0.1-0.4
					c0-0.1-0.1-0.4,0.2-0.3c0.2,0,0.1,0.4,0.1,0.4C228.3,312,228,312.1,228,312.1"/>
				<path id="path2246" class="st1" d="M221.5,310.9h5.6c0,0,0.2-0.1,0.2-0.3c-0.1,0-5.8,0-5.8,0s-0.2,0.1-0.2,0.2
					C221.3,310.8,221.5,310.9,221.5,310.9"/>
				<path id="path2248" class="st1" d="M227.2,307.9v0.8c0,0,0,0.2-0.1,0.3c-0.1,0.1-0.4,0.6-0.5,0.6c0,0-0.2,0.1-0.3,0
					c-0.1-0.1,0-0.2,0-0.2c0,0,0.2-0.4,0.3-0.4c0,0,0-0.1,0-0.1c0,0-0.9,0.1-1.3-0.1s-0.5-0.2-0.6-0.2s-0.3,0.1-0.6,0.1
					c-0.2,0-0.4-0.1-0.7-0.1c-0.2,0-0.7,0-0.9-0.1c-0.2-0.1-0.5-0.3-0.8-0.6c-0.2-0.3-0.3-0.7-0.5-0.9c-0.2-0.2-0.4-0.5-0.6-0.6
					c0,0,0.4,0,0.4-0.2c0-0.2,0-0.3-0.2-0.7c-0.2-0.4-0.3-0.6-0.5-0.7c-0.1-0.1,0.2,0,0.3,0c0.1,0,0.2,0.1,0.3,0.1
					c0.1,0,0-0.4,0-0.5c0-0.1-0.2-0.3-0.2-0.3s0.2-0.1,0.5-0.1c0.3,0,0.5,0.3,0.5,0.5c0.1,0.2,0.1,1.1,0.1,1.1s0.5-0.1,0.8-0.1
					c0.3,0,0.5,0.2,0.6,0c0.1-0.1-0.1-0.7-0.2-0.8c0-0.1-0.6-1.6-0.7-1.7c0-0.1,0-0.3,0-0.3h1.1c0,0,0.4,1.1,0.8,1.6
					c0.4,0.5,0.9,0.9,1,0.9c0.1,0-0.1-0.2-0.1-0.2s-0.6-0.7-0.7-1.1c-0.2-0.4-0.3-0.7-0.3-1.2c0,0,0.5,0,0.5,0s0.1,0.9,0.3,1.3
					c0.2,0.4,0.4,1,0.6,1.1c0.1,0.1,0,0.2-0.1,0.2c0,0,0.1,0.1,0.1,0.1c0,0,0.5,0.1,0.5,0.4c0,0.3-0.4,0.3-0.5,0.3
					c-0.1,0-0.7,0-0.7,0.3c0,0.4,0.7,0.8,0.7,0.8s0.7,0.5,0.8,0.5c0.1,0-0.1-0.2-0.1-0.2s-0.8-0.8-0.8-0.8c0-0.1-0.1-0.2,0-0.2
					c0,0,0.2,0.1,0.4,0c0.1-0.1,0.2-0.1,0.2-0.2c0.1-0.1,0.2-0.5,0.6-0.5c0.3,0,0.4,0.3,0.4,0.4c0,0.1,0.7,1,0.7,1s0,0.1-0.1,0.1
					c-0.1,0-0.8-0.1-0.9-0.1c-0.1,0.1,0,0.5,0,0.6c0,0.1-0.1,0.1-0.2,0.1c-0.1,0-0.3,0.1-1.2-0.3c-0.8-0.4-0.9-0.5-1.1-0.5
					c-0.2,0-0.3,0-0.4,0c0,0.1,0,0.5,0.1,0.7c0.1,0.2,0.4,0.6,0.6,0.4c0.1-0.1,0-0.2,0-0.2s-0.3-0.6-0.1-0.6c0.2,0,0.8,0,0.8,0
					s0.1,0.4,0.3,0.5c0.1,0.1,0.3,0.4,0.8,0.3c0.5,0,0.6-0.2,0.6-0.2c0-0.1-0.1-0.8,0-0.8c0.1,0,0.9,0.1,0.9,0.1
					c0,0,0.1,0.1,0.1,0.2c0,0.1,0,0.1-0.2,0.2C227.5,307.9,227.2,307.9,227.2,307.9z M223.6,306.7c0,0-0.2-0.8-0.1-0.8
					c0,0,0.5,0,0.5,0.2C223.9,306.4,223.6,306.7,223.6,306.7z M223.8,305.4c-0.1-0.1-0.9-2.2-0.9-2.3c0-0.1,0-0.1,0.1,0.1
					c0.1,0.2,1.5,2.1,1.5,2.1c0.1,0.1,0.1,0.1,0.1,0.2c0,0-0.2,0.1-0.3,0C224.2,305.5,223.9,305.5,223.8,305.4z M222.8,307.9
					c-0.1,0-0.6-0.2-0.7-0.6c-0.1-0.4-0.4-1.1-0.3-1.3c0.1-0.1,0.2-0.1,0.3,0c0.1,0.1,0.2,0.3,0.2,0.4c0,0.1,0,0.4,0.1,0.6
					c0.1,0.2,0.2,0.6,0.2,0.7C222.8,307.8,222.9,307.9,222.8,307.9"/>
				<path id="path2250" class="st1" d="M227.9,307.1c0,0,0,0.1-0.1,0.1c-0.1,0-0.1-0.2-0.1-0.2l-0.5-0.7c0,0,0-0.1,0-0.2
					c0.1,0,0.4,0,0.5,0c0.1,0,0.3,0,0.4,0.1C228.1,306.4,227.9,307.1,227.9,307.1"/>
				<path id="path2252" class="st1" d="M227.9,306c0,0.1,0.1,0.2,0.2,0.2s0.2-0.1,0.2-0.2c0-0.1-0.1-0.2-0.2-0.2
					S227.9,305.9,227.9,306"/>
				<path id="path2254" class="st1" d="M231.5,308.8c0,0,0.1,0.1,0.3,0.2c0.2,0,0.6,0.1,0.6,0.1l0.1,0.3c0,0,0,0.1,0.1,0.1
					s0.1-0.2,0.1-0.3c0-0.1,0.1-0.1,0.2-0.1c0.1,0,0.1,0,0.1,0.1c0,0.1,0.1,0.3,0.1,0.3s0.1,0,0.1,0c0-0.1,0-0.3,0.1-0.3
					c0.1,0,0.4,0,0.4,0l0,0.9c0,0,0,0.1-0.1,0.1c-0.1,0-0.3,0-0.3,0l-0.2,0.3c0,0-0.1,0-0.1,0c0,0-0.6,0-0.6,0s-0.1,0-0.1-0.1
					c0,0,0-0.1,0-0.2c0,0,0.2-0.2,0.3-0.3c0-0.1,0-0.2,0-0.2s-0.3-0.2-0.3-0.2c0,0-0.1,0.1-0.1,0.2c0,0.1-0.1,0.5-0.1,0.5
					s0,0.1,0,0.1c0,0-1.2,0.1-1.2,0.1s-0.3,0-0.4-0.1s-0.2-0.2-0.2-0.2c0,0,0.2-0.2,0.2-0.2c0,0,1.1-0.5,1.3-0.6
					c0.1,0,0.2-0.1,0.2-0.1c0,0-0.2,0-0.2,0c0,0-1.3,0.5-1.3,0.6c0,0-0.3,0.2-0.3,0.2c-0.1,0-0.1,0-0.3-0.1
					c-0.1-0.1-0.2-0.2-0.2-0.2c0-0.1,0.1-0.2,0.7-0.6c0.6-0.4,0.8-0.5,0.8-0.5s0.1,0,0.1,0L231.5,308.8"/>
				<path id="path2256" class="st1" d="M228.5,308.1c0,0,0.2-0.1,0.3-0.2c0.1-0.1,0.1-0.9,0.3-1c0.1-0.1,0.3,0,0.3-0.1
					c0-0.1,0.4,0,0.4,0s0,0.2-0.1,0.3c-0.1,0.1-0.1,0.1-0.2,0.1c0,0-0.2-0.1-0.2-0.1c-0.1,0-0.1,0.1-0.1,0.2c0,0.1-0.1,1-0.2,1
					c0,0-0.1,0.1-0.1,0.1c0,0-0.1-0.1-0.2-0.1C228.7,308.2,228.5,308.1,228.5,308.1z M231.6,308.8c-0.2-0.1-0.3-0.3-0.4-0.3
					c-0.1,0-0.2,0-0.2,0s-0.4,0.2-0.8,0.5c-0.4,0.3-0.6,0.5-0.6,0.6c0,0-0.1,0.1-0.1,0.1c0,0-0.1,0-0.1-0.1c0-0.1-0.2-1.1-0.2-1.1
					s-0.1-0.1-0.1-0.1c0,0-0.3,0.2-0.4,0.3c0,0-0.1,0-0.2,0c0,0-0.3-0.1-0.3-0.1c0,0,0.1,0.2,0.2,0.2c0.1,0,0.1,0,0.1,0.1
					c0,0-0.3,1.6-0.3,1.6s0,0.1-0.1,0.2c-0.1,0-0.6-0.1-0.6-0.1c-0.1,0-0.1-0.2-0.1-0.2l-0.2,0c0,0-0.2-0.6-0.2-0.7
					c0-0.1-0.1-0.4,0-0.4c0.2,0,0.2,0.3,0.3,0.4c0.2,0.2,0.3,0.2,0.3,0.2c0,0-0.4-0.4-0.4-0.6c0-0.2,0.5-0.6,0.5-0.8
					c0.1-0.3,0.6-2.2,0.6-2.2s0-0.1,0.1-0.1c0.1,0,0.4,0.2,0.4,0.2l0,0.3c0,0,0.2-0.2,0.3-0.1s0.6,0.3,1,0.5
					c0.4,0.2,0.6,0.3,0.9,0.3c0.3,0,0.5,0,0.5-0.1c0-0.1-0.1-0.3-0.5-0.5c-0.5-0.2-0.8-0.3-0.9-0.3s-0.2-0.2-0.2-0.4s0-0.5,0-0.5
					s1,0.2,1.6,0.6c0.6,0.4,1.1,0.8,1.1,0.8l0.1,0.8l-0.9,0.4c0,0-0.1,0-0.1,0.1c0,0.1,0.2,0.6,0.1,0.6c0,0,0,0.1-0.2,0.1
					C231.8,308.9,231.7,308.9,231.6,308.8z M230.8,307.5c-0.2,0-0.8-0.1-0.9-0.1c-0.1,0-0.2,0-0.1,0.1c0.1,0.1,0.3,0.3,0.9,0.3
					c0.6,0,1-0.2,1.1-0.3c0.1,0,0.1-0.1,0.1-0.2c0,0-0.2,0-0.3,0C231.6,307.5,231,307.5,230.8,307.5"/>
				<path id="path2258" class="st1" d="M229.4,310c0,0-0.1,0.1-0.3,0c-0.2-0.1-0.2-1-0.2-1.2c0.1-0.1,0.2-0.2,0.2-0.2
					c0.1,0,0.1,0,0.2,0.4C229.3,309.5,229.4,310,229.4,310"/>
				<path id="path2260" class="st1" d="M229.6,311.3c0,0,0-0.2,0-0.3c0,0-0.1-0.1-0.1-0.1c0,0-0.8-0.1-0.8-0.1s-0.1,0-0.1,0
					c0-0.1-0.1-0.2,0-0.4c0-0.2,0.1-0.3,0.2-0.3s0.6,0.2,0.7,0.2c0.1,0,0.2,0,0.2,0l0-0.2l0.2,0c0,0,0.4,0.4,0.6,0.4
					c0.2,0,7.7,0.1,7.7,0.1l0,0.1h0.1c0,0,0.1-0.2,0.2-0.1c0.1,0,0.7,0.2,0.7,0.2c0,0.1-0.5,0.2-0.7,0.2c-0.2,0-0.2-0.1-0.2-0.1
					l-0.1,0l-0.1,0.1l-7.6,0.1c0,0-0.4,0.1-0.4,0.2c-0.1,0.1-0.1,0.2-0.2,0.2C229.7,311.3,229.6,311.3,229.6,311.3"/>
				<path id="path2262" class="st1" d="M233.9,312.7c0,0,0-0.6-0.1-0.8c-0.1-0.1-0.3-0.3-0.5-0.1c-0.1,0.2-0.1,0.2-0.1,0.2
					c0,0-0.1,0-0.1,0c0-0.1-0.1-0.1-0.1-0.1c-0.1,0-0.2,0-0.2,0v-0.1c0,0,0.1-0.2,0.2-0.2c0.1,0,0.1-0.1,0.1-0.1s-0.2-0.1-0.2-0.2
					c0-0.1,0-0.2,0-0.2c-0.1,0-0.5-0.1-0.6-0.1c-0.1,0-0.7,0-0.8,0c0,0,0,0.3-0.1,0.4c0,0-0.1,0.1-0.2,0c-0.1,0-0.4-0.4-0.5-0.4
					c-0.1,0-0.3-0.1-0.4,0.1c-0.1,0.2,0.1,0.4,0.3,0.6c0.2,0.2,0.9,0.7,1.4,0.7c0.5,0,1.3,0,1.3,0S233.7,312.7,233.9,312.7
					C233.8,312.8,233.9,312.7,233.9,312.7z M232.3,311.8c0,0-0.1,0.1-0.3,0c-0.3-0.1-0.4-0.1-0.3-0.2c0,0,0.2-0.1,0.3-0.1
					c0.1,0,0.2,0.1,0.3,0.1C232.3,311.7,232.3,311.8,232.3,311.8"/>
				<path id="path2264" class="st1" d="M233.7,311.1c0,0.1,0,0.3,0,0.4c-0.1,0.1-0.2,0.1-0.3,0c-0.1-0.1-0.2-0.4-0.1-0.4
					c0,0,0.1,0,0.2,0C233.6,311,233.7,311,233.7,311.1"/>
				<path id="path2266" class="st1" d="M235.7,312.4c0,0,0.2,0,0.4-0.1c0.2-0.2,0.2-0.2,0.2-0.3c0,0-0.3-0.4-0.3-0.4
					c0-0.1-0.1-0.2,0-0.2c0.1,0,0.8-0.4,0.9-0.4c0.1,0,0.4,0,0.4,0c0.1,0,0.2,0.1,0.2,0.1c0,0,0,0.5,0,0.5s0,0.2-0.2,0.3
					c-0.2,0.1-1.9,1.5-1.9,1.5s-0.1,0.1-0.3,0.1c-0.2,0-0.5-0.1-0.5-0.1s-0.1-0.4,0-0.4c0,0,0.1-0.1,0.2-0.1c0.1,0,0.4,0,0.4-0.2
					c0-0.1-0.1-0.2-0.2-0.2c-0.1-0.1-0.2-0.1-0.2-0.1c0-0.1,0.1-0.2,0.2-0.2c0.1,0,0.1,0,0.2,0.1c0.1,0,0.2,0.1,0.2,0
					c0-0.1,0-0.2,0-0.3c-0.1-0.1-0.2-0.1-0.2-0.2c0-0.1,0-0.1,0-0.1c0.1-0.1,0.2-0.2,0.2-0.3c0-0.1,0.1-0.3,0.1-0.4c0,0,0.5,0,0.6,0
					c0.1,0,0.1,0.1,0,0.1c0,0-0.6,0.3-0.6,0.4c0,0.1,0,0.2,0.1,0.3C235.6,311.9,235.7,312,235.7,312.4"/>
				<path id="path2268" class="st1" d="M234.5,314.8v-0.3l3-2.5c0,0,0.2-0.2,0.2-0.3c0-0.1,0-0.5,0-0.5c0,0,0.1-0.1,0.1-0.1
					c0.1,0,0.4,0.1,0.7,0.3c0.2,0.3,0.3,0.5,0.3,0.6c0,0.1,0,0.2,0,0.2c0,0-0.6,0-0.7,0c-0.1,0-0.2,0.1-0.2,0.1c0,0-3.2,2.4-3.2,2.4
					L234.5,314.8"/>
				<path id="path2270" class="st1" d="M237.5,313.8c0,0,0.1-0.5-0.4-0.5c-0.6,0-0.5,0.4-0.5,0.4L237.5,313.8"/>
				<path id="path2272" class="st1" d="M239.1,313.9v-0.1c0,0-0.1-0.1-0.2-0.2c-0.1-0.1-0.3-0.2-0.3-0.2s0.1-0.3,0.1-0.4
					c0-0.1,0-0.5,0-0.5s0-0.1-0.3-0.1c-0.3,0-0.4,0.1-0.4,0.1c0,0,0,0.4,0,0.4s-0.1,0.2-0.1,0.2c-0.1,0.1-0.1,0.1-0.1,0.2
					c0,0.1,0.1,0.4,0.2,0.4c0,0,0.1,0.1,0.1,0.1L239.1,313.9"/>
				<path id="path2274" class="st1" d="M234.4,314.7v0.3l-2.2,1.8l-0.2,0c0,0,0-0.1,0-0.2c0,0,2.2-1.9,2.3-1.9
					C234.3,314.6,234.4,314.7,234.4,314.7"/>
				<path id="path2276" class="st1" d="M231.4,317.3c0,0,0-0.3,0.1-0.4c0.1-0.1,0.2-0.2,0.4-0.1c0.1,0.1,0,0.2-0.1,0.3
					C231.7,317.3,231.4,317.3,231.4,317.3"/>
				<path id="path2278" class="st1" d="M241.6,313.7c0,0,0.3,0.1,0.4,0.4s0.2,0.8-0.2,1.1c-0.4,0.3-0.8,0.2-0.9,0.2
					c-0.1,0-0.3-0.1-0.4-0.2c0-0.1,0-0.2,0.1-0.1c0.1,0,0.5,0.1,0.7-0.2c0.2-0.3,0.2-0.4,0.2-0.5
					C241.6,314.1,241.6,313.8,241.6,313.7C241.6,313.7,241.6,313.7,241.6,313.7"/>
				<path id="path2280" class="st1" d="M239.7,312.6c0-0.1,0-0.3,0-0.3s0.1,0,0.3,0c0.2,0,0.4,0,0.5-0.1c0.1-0.1,0.1-0.1,0.1-0.2
					c0-0.1-0.4-0.1-0.5,0c-0.1,0-0.7,0.3-0.7,0.3c-0.1,0.1-0.1,0.1-0.2,0c0-0.1-0.6-0.9-0.7-1c-0.1-0.1-0.1-0.2,0-0.2
					c0.1,0,0.2,0,0.3,0c0.1-0.1,0-0.2,0.2-0.3c0.2-0.1,0.3-0.1,0.3,0c0.1,0.1,0.3,0.5,0.3,0.6c0,0,0,0.1-0.1,0.1
					c-0.1,0-0.3,0.2-0.3,0.2s0.1,0,0.2,0c0.1,0,0.4-0.2,0.5-0.2c0,0,0-0.1,0-0.2c0,0-0.3-0.6-0.4-0.7c-0.1-0.1-0.3-0.4-0.6-0.5
					c-0.2,0-0.2,0-0.3,0c0,0-0.1,0.1-0.2,0.1c-0.1,0-3,0-3,0s-0.1,0-0.2-0.1c0-0.1-0.1-0.3-0.1-0.3c0-0.1-0.1-0.1-0.2-0.1
					c-0.1,0-0.2,0-0.3-0.1c-0.1-0.1-0.2-0.2-0.2-0.2l0-0.7c0,0,0.1-0.6,0.2-1.1c0.1-0.5,0.2-1,0.4-1c0.1-0.1,0.2,0,0.2,0
					c0.1,0,0.3,0.2,0.4,0.2c0,0,0.1,0.1,0,0.2c0,0.1-0.2,0.5-0.3,0.7c-0.1,0.2-0.2,0.6-0.1,0.6c0,0.1,0.1,0.1,0.1,0.1
					s0.3-0.2,0.3-0.2c0,0,0.4-0.4,0.4-0.4c0.1,0,0.1,0,0.1,0l0,0.8c0,0-0.1,0.1-0.4,0.2c-0.3,0.1-0.8,0.2-0.8,0.2s0,0.1,0,0.1
					c0,0,0.7,0.1,1,0c0.3-0.1,0.3-0.1,0.3-0.2c0,0,0-0.4,0.1-0.4c0-0.1,0-0.1,0.1-0.1c0.1,0,0.1,0.1,0.3,0.1c0.1,0,0.5,0,0.5,0
					c0.1,0,0,0,0.1,0c0,0,0.2,0,0.2,0s0,0.1-0.1,0.2c-0.1,0.1-0.1,0.1-0.2,0.2c0,0.1,0,0.3,0,0.3s0-0.1,0.2-0.2
					c0.1-0.1,0.2-0.1,0.3-0.2c0.1-0.1,0.1-0.1,0-0.2c0,0-0.1-0.2-0.1-0.2c0-0.1-0.1-0.1,0-0.2c0,0,0.4-0.5,0.4-0.5s0.1,0,0.1,0
					c0.1,0,0.4,0.5,0.7,0.7c0.3,0.2,0.3,0.3,1,0.4c0.6,0.1,1,0.1,1,0.1s0.1,0,0,0.1c0,0-0.4,0.3-0.9,0.2c-0.5,0-0.7-0.2-0.8-0.2
					c-0.1,0-0.4,0.1-0.5,0.2c-0.1,0.1-0.4,0.4-0.4,0.5c0,0.1,0,0.1,0,0.1s0.1,0,0.1,0c0.1,0,0.1-0.1,0.1-0.1c0,0,0.4,0,0.4,0
					c0,0,0.2,0,0.4,0.2c0.2,0.2,0.7,0.8,1,1.3c0.3,0.5,0.4,0.5,0.4,0.5s-0.1-0.4-0.1-0.6c-0.1-0.2-0.1-0.3-0.1-0.4
					c0-0.1,0.1-0.2,0.3-0.3c0.2-0.1,0.3-0.1,0.3-0.1c0,0,0.1,0.7,0.1,0.9c0,0.2,0,0.4,0,0.5c0,0.1-0.1,0.2-0.1,0.3
					c0,0.1,0,0.2,0,0.2c0,0,0.4,0.2,0.4,0.6c0,0.4-0.2,0.5-0.2,0.5s0,0.1,0,0.1c0,0,0.5,0.3,0.4,0.7c-0.1,0.4-0.3,0.7-0.7,0.7
					c-0.4,0-0.7-0.4-0.7-0.5c0-0.2,0.2-0.4,0.4-0.4s0.2,0.1,0.4,0.1c0.2,0,0.2-0.2,0.2-0.2c0-0.1-0.1-0.3-0.3-0.3
					c-0.1,0-0.5,0-0.5,0s-0.2,0-0.3-0.1c-0.1-0.1-0.3-0.2-0.3-0.2l0-0.1c0,0,0.5-0.1,0.5-0.2c0-0.1,0-0.1-0.1-0.1
					C240,312.7,239.7,312.7,239.7,312.6z M236.8,309.6l0.4,0c0,0,0.1,0.1,0.3,0.2c0.2,0.1,0.4,0.2,0.4,0.2s-0.4,0.1-0.7-0.1
					C236.9,309.8,236.8,309.6,236.8,309.6z M238.5,308.9C238.5,308.9,238.5,308.9,238.5,308.9c-0.1-0.1-0.3-0.3-0.3-0.3
					c-0.1,0-0.2,0.1-0.2,0.2c0,0.1,0,0.1,0,0.1L238.5,308.9"/>
				<path id="path2282" class="st1" d="M240.4,309.4c0,0,0,0.1,0,0.1c0,0-0.5,0.5-0.6,0.5c-0.1,0.1-0.1,0.1-0.2,0
					c-0.1-0.1-0.4-0.3-0.5-0.3c-0.1,0-0.4-0.1-0.6-0.1c-0.2,0-0.2-0.1-0.1-0.2c0.1,0,0.2-0.2,0.3-0.2c0.2,0,0.6,0,0.6,0
					c0,0,0.5,0.1,0.6,0.1C240.1,309.5,240.4,309.4,240.4,309.4"/>
				<path id="path2284" class="st1" d="M240.2,310.4l4.6-3.7c0,0,0.1-0.1,0-0.2c-0.1-0.1-0.2,0-0.2,0l-4.7,3.7c0,0-0.1,0.1,0,0.2
					S240.2,310.4,240.2,310.4"/>
				<path id="path2286" class="st1" d="M244.2,304c0,0-0.9-0.1-1.4,0.6c-0.5,0.7-0.5,0.8-0.5,0.8s-0.1,0.4-0.1,0.4
					c0,0.1,0.3,0.4,0.3,1c0,0.5-0.4,1.1-0.7,1.4c-0.2,0.2-0.8,0.6-1.3,0.6c-0.5,0-0.9-0.2-0.9-0.3c0,0-0.1-0.1-0.1-0.1
					c0,0,0.1-0.1,0.1-0.1c0,0,0.6,0,0.8-0.2s0.2-0.5,0.2-0.6c0-0.1,0-0.1-0.1-0.1c0,0-0.5-0.2-0.6-0.5c-0.1-0.3-0.2-0.6-0.2-0.6
					c0,0,0-0.1-0.1-0.1c-0.1,0-0.3,0.5-0.3,0.6c0,0.2-0.1,0.5-0.1,0.8c0.1,0.3,0.2,0.5,0.2,0.5c0,0.1,0,0.1-0.1,0.1
					c-0.1,0-0.3-0.3-0.3-0.4c0-0.1-0.1-0.4-0.2-0.4c0,0,0-0.1-0.1-0.1c0,0-0.4,0.4-0.4,0.4l-0.1,0v-0.1c0,0,0.3-0.7,0.4-1
					c0.1-0.3,0.2-0.8,0.2-0.9c0,0,0-0.1,0.1-0.1c0,0,0.6-0.1,0.8-0.3c0.3-0.2,0.5-0.4,0.6-0.5c0.1-0.1,0.1-0.2,0-0.2
					c-0.1,0-0.4-0.1-0.5-0.1c-0.1-0.1-0.2-0.1-0.2-0.1c0,0-0.6,0.6-0.7,0.7c-0.1,0.1-0.3,0.5-0.4,0.7c-0.1,0.2-0.2,1-0.2,1.1
					c-0.1,0.2-0.2,0.5-0.3,0.6c-0.1,0.1-0.5,0.3-0.5,0.3v0.5c0,0,0.1,0,0,0.1c0,0-0.2,0.1-0.3,0.2c-0.1,0-0.4,0-0.6-0.1
					c-0.1,0-0.2-0.1-0.2-0.1c0-0.1,0.1-0.8,0.1-0.8c0,0,0-0.1-0.1-0.1c-0.1,0-0.6,0.1-0.6,0.1c0,0-0.1-0.1,0-0.1
					c0,0,0.4-0.5,0.4-0.5s0,0,0.1,0c0,0,0.1,0.1,0.1,0.1c0,0,0.1-0.2,0.1-0.3c0-0.1,0-0.2,0.1-0.3c0,0,0.3,0,0.3,0s0-0.2,0.1-0.3
					c0.1-0.1,0.2-0.1,0.3-0.1c0.1,0.1,0.1,0.3,0,0.4c-0.1,0.1-0.3,0.1-0.3,0.1s0.1,0.3,0.1,0.4c0,0.1,0.1,0.4,0.1,0.4s0,0,0.1,0
					c0,0,0.2-0.2,0.3-0.4c0-0.2,0.2-0.7,0.2-1.1c0-0.5-0.1-0.5-0.1-0.6c0,0-0.2-0.2-0.4-0.4c-0.2-0.1-0.7-0.4-1.2-0.8
					c-0.5-0.4-1-1-1-1.3c-0.1-0.2,0-0.2,0-0.2s0.1,0,0.2,0c0,0,1,0,1,0s0.1,0,0.1,0.1c0,0,0.3,0.6,1,0.9c0.8,0.3,1,0.3,1.2,0.3
					c0.2,0,0.2,0,0.2,0c0,0,0.3-0.6,0.4-0.6c0.2,0,0.3-0.1,0.4,0c0.2,0.1,0.4,0.5,0.6,0.6c0.2,0.1,0.4,0.3,0.6,0.3
					c0.2,0,0.1-0.1,0.2-0.1c0,0,0.1-0.3,0.2-0.4c0.1-0.1,0.4-0.3,0.4-0.3h0.6v0.1c0,0-0.3,0.2-0.5,0.5c-0.1,0.3-0.2,0.6-0.2,0.8
					c0,0.3,0,0.6-0.1,0.8c-0.1,0.2-0.2,0.4-0.3,0.4c-0.1,0.1-0.2,0.1-0.2,0.1s0,0.1,0.1,0.1c0.1,0.1,0.4,0.1,0.5,0
					c0.1,0,0.2-0.2,0.3-0.3c0-0.1,0.1-0.5,0-0.6c0-0.1-0.3-0.9,0.2-1.3c0.4-0.4,0.9-0.6,1.1-0.6c0.2,0,0.7,0,0.8,0s0.4,0.2,0.4,0.2
					L244.2,304z M241.5,307.3c0,0-0.7,0.1-0.8-0.3c-0.1-0.4-0.1-0.5,0-0.6c0-0.1,0.2-0.2,0.2-0.3c0-0.1,0-1,0-1l0-0.5
					c0,0-0.1-0.1-0.1,0c-0.1,0-0.2,0.1-0.2,0.5c-0.1,0.3-0.2,1.1-0.2,1.4c0,0.3,0.1,0.8,0.3,0.9c0.2,0.1,0.3,0.2,0.4,0.2
					C241.2,307.5,241.5,307.3,241.5,307.3L241.5,307.3L241.5,307.3z M235.8,303.2l0,0.2c0,0,0.5,0.6,1.1,1c0.7,0.4,1,0.5,1,0.5
					s0.3,0.1,0.4-0.1c0.1-0.2,0-0.2-0.2-0.2c-0.2-0.1-0.8-0.3-1.2-0.6c-0.3-0.3-0.7-0.7-0.7-0.7H235.8"/>
				<path id="path2288" class="st1" d="M223.4,281c0-0.1-0.1-0.3-0.3-0.4c-0.2-0.1-0.3,0.1-0.4,0.2c0,0.2,0.1,0.4,0.3,0.4
					C223.3,281.3,223.4,281.1,223.4,281"/>
				<path id="path2290" class="st1" d="M243.7,281.6c-0.4-1.5-1-2.9-1.5-4.4c-0.1-0.1,0-0.4,0.2-0.4c0.1,0,0.2,0,0.2-0.1l-0.1-0.1
					H241l-0.1,0.1c0.3,0.1,0.6,0.2,0.8,0.6c0.4,1.2,1,2.5,1.2,3.8c-0.1,0.2-0.4-0.1-0.5,0.1C242.9,281.4,243.3,281.5,243.7,281.6"/>
				<path id="path2292" class="st1" d="M235.3,281.6c-0.5-1.5-1-2.9-1.5-4.4c0-0.1,0.1-0.3,0.3-0.3h0.2v-0.1c-0.6,0-1.2-0.1-1.7,0
					c0.1,0.2,0.4,0.1,0.6,0.3c0.6,1.2,1,2.7,1.5,4c0,0.1-0.1,0.2-0.2,0.2c-0.1,0-0.2,0-0.3,0C234.4,281.4,234.9,281.5,235.3,281.6"
					/>
				<path id="path2294" class="st1" d="M238.6,281.4c-1-1.6-1.8-3.3-2.8-4.8c-0.1,0-0.2,0-0.2,0.1c0.7,1.3,1.6,2.7,2.3,4.1l-0.1,0.1
					c-0.7,0-1.5,0-1.8-0.6l0,0l0.5,1c0.7,0.1,1.4,0,2.1,0.1L238.6,281.4"/>
				<path id="path2296" class="st1" d="M229.3,279.4c0-0.2,0-0.4-0.2-0.4c-0.4,0,0,0.4-0.4,0.5c-0.7,0-1.1-0.9-1.3-1.4
					c-0.1-0.4-0.1-0.8,0.1-1.1c0.2-0.2,0.5-0.1,0.7,0c0.1,0.1,0.2,0.2,0.3,0.1c0-0.2-0.2-0.4-0.4-0.5c-0.3-0.1-0.8-0.2-1.1,0
					c-0.3,0.4-0.4,0.7-0.2,1.2c0.1,0.8,0.7,1.5,1.5,1.8C228.6,279.8,229.1,279.8,229.3,279.4"/>
				<path id="path2298" class="st1" d="M223,279.4c-0.2-0.8-0.6-1.6-0.9-2.3c0-0.1,0-0.2,0.1-0.1c0.3,0.1,0.5,0.4,0.7,0.6l0.1-0.1
					c-0.4-0.4-0.7-1-1.4-0.9l-0.1,0.2c0.2,0.8,0.7,1.5,0.9,2.4c-0.1,0.1-0.2,0-0.3,0c-0.1-0.1-0.1-0.1-0.2-0.1l0,0
					c0.2,0.3,0.5,0.6,0.8,0.7C222.9,279.7,223.1,279.6,223,279.4"/>
				<path id="path2300" class="st1" d="M224.7,279.4c0-0.3-0.2-0.5-0.1-0.7c0.5,0.4,1,1.2,1.7,1c0.2-0.2,0.1-0.5,0-0.7
					c-0.3-0.6-0.5-1.2-0.7-1.7c0.3-0.4,0.5,0.2,0.8,0.3c0.1-0.2-0.2-0.4-0.4-0.5c-0.2-0.2-0.6-0.5-0.9-0.4l-0.1,0.2
					c0.2,0.7,0.6,1.5,1,2.3c0,0.2-0.1,0.4-0.3,0.3c-0.7-0.4-1.2-1.2-1.5-1.8c-0.2-0.3-0.3-0.8-0.6-1c-0.1,0-0.2,0.1-0.2,0.2
					c0.3,0.6,0.8,1.4,0.9,2.3c-0.1,0.3-0.3,0-0.4-0.1c0-0.1-0.1-0.2-0.2-0.2c0.1,0.3,0.3,0.7,0.6,0.9
					C224.5,279.8,224.7,279.6,224.7,279.4"/>
				<path id="path2302" class="st1" d="M221.6,279.4c0-0.1-0.1-0.3-0.2-0.3c-0.2,0-0.4,0.5-0.7,0.2c-0.5-0.5,0.2-1.1,0.5-1.6
					c0.1-0.4-0.1-0.7-0.4-1c-0.3-0.2-0.7-0.4-1.1-0.2c-0.2,0.1-0.2,0.3-0.1,0.4c0.4,0.3,0.5-0.5,0.9-0.1c0.9,0.7-0.9,1.3-0.3,2.2
					c0.2,0.3,0.4,0.6,0.7,0.6C221.1,279.7,221.5,279.7,221.6,279.4"/>
				<path id="path2304" class="st1" d="M241.6,281.5c-0.9-0.2-1.6-0.9-2-1.7c0.4,0.1,0.9,0.1,1.2-0.2c0.3-0.4,0.2-0.9,0.1-1.4
					c-0.2-0.6-0.6-1.1-1.2-1.5c-0.3-0.1-0.7-0.1-1,0.1c-0.6,0.6-0.6,1.1-0.4,1.8c0.4,1.4,1.7,2.9,3.2,3
					C241.6,281.6,241.6,281.5,241.6,281.5z M239.8,279.6c-0.2,0-0.4-0.1-0.6-0.3c-0.3-0.7-0.8-1.7-0.2-2.4c0.2-0.1,0.5,0,0.6,0.1
					c0.5,0.6,0.8,1.4,0.6,2.2C240.2,279.4,240,279.6,239.8,279.6"/>
				<path id="path2306" class="st1" d="M231.5,279.4c0-0.2,0-0.6-0.2-0.8c-0.4-0.4-1-0.5-1.6-0.5c-0.2-0.4-0.2-0.6,0-1
					c0.2-0.3,0.6-0.3,0.9-0.1c0.1,0,0.2,0.3,0.4,0.2c-0.1-0.5-0.7-0.7-1.1-0.7c-0.3,0-0.6,0.2-0.7,0.5c-0.1,0.8,0.2,1.7,0.7,2.3
					C230.2,279.8,231.1,280,231.5,279.4z M230.7,279.5c-0.5-0.2-0.8-0.7-0.9-1.2c0.1-0.1,0.4,0,0.6,0c0.4,0.1,0.6,0.5,0.6,0.9
					C231,279.4,230.8,279.5,230.7,279.5"/>
			</g>
		</g>
	</g>
</g>
</svg>
