<?xml version="1.0" encoding="utf-8"?>
<!-- Generator: Adobe Illustrator 24.2.3, SVG Export Plug-In . SVG Version: 6.00 Build 0)  -->
<svg version="1.1" id="Ebene_1" xmlns="http://www.w3.org/2000/svg" xmlns:xlink="http://www.w3.org/1999/xlink" x="0px" y="0px"
	 viewBox="0 0 30 30" style="enable-background:new 0 0 30 30;" xml:space="preserve">
<style type="text/css">
	.st0{fill:none;}
	.st1{fill:#FFFFFF;stroke:#3B3D42;stroke-width:0.5;stroke-linecap:round;stroke-linejoin:round;stroke-miterlimit:10;}
	.st2{fill:#FFFFFF;}
	.st3{fill:#3B3D42;}
</style>
<rect class="st0" width="30" height="30"/>
<g>
	<path class="st1" d="M11.2,19.2c-0.3,0-0.7-0.1-1-0.1c-1,0-1.7-0.5-2.3-1.4c-0.2,0.2-0.5,0.4-0.5,0.6c0,0.9-0.5,1.5-1,2.2
		c-0.1,0.1-0.1,0.2-0.2,0.4c0.7,1,1.3,2.1,2.1,3.1c1,1.2,2,2.3,3.1,3.4c0.8,0.8,1.9,1.2,3,1.6c0.1,0,0.2,0,0.4,0
		c0.3-0.9-0.1-1.6-0.3-2.5c0.7-0.8,1.5-1.5,2.3-2.4c0.3-0.4,0.6-0.8,0.9-1.2c0.9-1.5,1.5-1.7,2.9-1.4c0.3,0.1,0.7,0.1,1,0.1
		c1.3,0.2,2.4-0.7,2.4-2.1c0-0.6-0.1-1.2,0.3-1.8c-0.1-0.2-0.2-0.4-0.3-0.6c0.4-0.5,0.5-0.9,0.5-2.2c0.7-0.3,1.5-0.4,1.8-1.4
		c-0.5-0.5-1-1-1.6-1.7L24,11.8c-0.1-0.4-0.3-0.8-0.4-1.4c0.1-0.2,0.2-0.7,0.4-1.2c-0.4-0.8-0.9-1.6-1.2-2.2c0-0.5,0-0.9-0.1-1.2
		c0-0.4,0.3-0.6,0.5-0.9c0.1-0.1,0.2-0.1,0.4-0.3c-0.3-0.1-0.5-0.2-0.7-0.3c-0.1-0.2-0.1-0.4-0.2-0.6c-0.9-0.4-1.8-0.9-2.7-1.4
		c-0.2,0-0.4-0.1-0.7-0.1c-1.1-0.3-2.1-0.7-3.2-0.9C15.2,1.2,14.3,1,13.4,1c-0.4,0-0.8,0.3-1.2,0.4c-0.1,0-0.2,0.2-0.3,0.2
		C11,1.8,10.4,2.4,9.8,2.9C9.5,3.2,9.1,3.3,8.7,3.4c-0.5,0.1-1,0.1-1.4,0.3C7,3.8,6.7,4.1,6.5,4.4C6.1,5.2,5.7,6,5.4,6.9
		C5.2,7.5,5.2,8.1,5,8.7c-0.2,0.5-0.5,1-0.8,1.5c0.2,0.3,0.3,0.6,0.5,0.9c-0.5,0.9-0.2,1.4,0.1,2.2c-0.2,0.3-0.3,0.7-0.6,1.1
		c0.2,0,0.5-0.1,0.8-0.2c0.1,0.2,0.1,0.4,0.2,0.5c0.5,0.3,0.5,0.8,0.5,1.3c0,0.4,0.2,0.7,0.4,1.1c-0.6,0.7-0.4,1.7,0.9,2.1"/>
	<path class="st1" d="M22.2,7.1c-0.1-0.2-0.1-0.5-0.2-0.7c-1.4,0.5-2.8,0.7-4.3,0C18,7.2,18.2,8,18.3,8.6c-0.3,0.9-0.7,1.7-1,2.6
		c0.5,0.6,0.5,0.6,1.8,1.1c-0.6,1.1-1.5,0.1-2.1,0.2c0,0.4-0.1,0.8-0.1,1.2c-0.4-0.1-0.7-0.3-1.1-0.4c0.1,0.4,0.1,0.7,0.2,1
		c-0.6,0-0.7,0-0.8-1.5c-0.6,0.1-0.8,1.1-1.6,0.9c0.3-0.8,0.6-1.5,0.9-2.4c-0.7-0.1-1.2-0.3-1.8-0.4c-1.2-0.1-1.9,0.7-1.7,2.1
		c0.2,1.7,0.2,1.7,1.9,3.6c-1,0.3-1.9,1.3-3.2,0.4c-0.1,0.3-0.1,0.5-0.2,0.8c0.4,0.3,0.8,0.7,1.2,1.1"/>
	<path class="st1" d="M18,10c0.8,0.2,1.5,0.3,2.3,0.5c1,0.2,2,0.4,2.9,0.6c0.2,0,0.6,0,0.8,0"/>
	<g>
		<path class="st2" d="M24.3,12.8c-0.3,0-0.5-0.2-0.5-0.5l0-0.3c0-0.2,0-0.4,0-1.1l0-0.5c0-0.3,0-0.5,0.2-0.7
			c0.1-0.1,0.3-0.2,0.5-0.2c0,0,0.1,0,0.2,0c0.1,0,0.2,0.1,0.2,0.2v2.5C24.8,12.6,24.5,12.8,24.3,12.8z"/>
		<path class="st3" d="M24.4,9.8c0,0,0.1,0,0.1,0c0,0.2,0,0.4,0,0.6v1.5c0,0,0,0.1,0,0.4c0,0.2-0.1,0.3-0.3,0.3
			c-0.1,0-0.2-0.1-0.2-0.3c0-0.3,0-0.4,0-1.4l0-0.4C24,10.1,24,9.8,24.4,9.8 M24.4,9.3C24.4,9.3,24.4,9.3,24.4,9.3
			c-0.3,0-0.5,0.1-0.6,0.2c-0.3,0.3-0.3,0.6-0.2,0.9l0,0.1l0,0.4c0,0.7,0,0.9,0,1.1l0,0.3c0,0.4,0.3,0.8,0.7,0.8
			c0.4,0,0.8-0.3,0.8-0.8v-0.4v-1.5V9.8c0-0.3-0.2-0.5-0.4-0.5C24.5,9.3,24.5,9.3,24.4,9.3L24.4,9.3z"/>
	</g>
	<path class="st1" d="M22.7,7c-0.1,0.1-0.4,0-0.5,0.1"/>
</g>
</svg>
