<svg id="Ebene_1" data-name="Ebene 1" xmlns="http://www.w3.org/2000/svg" viewBox="0 0 30 30"><defs><style>.cls-1{fill:none;}.cls-2{fill:#f5f5f5;}.cls-3{fill:#afaeac;}.cls-4{fill:#373530;}</style></defs><rect class="cls-1" width="30" height="30"/><rect class="cls-2" x="2.54" y="2.54" width="24.92" height="24.92" rx="0.61"/><path class="cls-3" d="M26.62,27.92H3.38a1.3,1.3,0,0,1-1.3-1.3V3.38a1.3,1.3,0,0,1,1.3-1.3H26.62a1.3,1.3,0,0,1,1.3,1.3V26.62A1.3,1.3,0,0,1,26.62,27.92ZM3.38,2.79a.59.59,0,0,0-.6.59V26.62a.59.59,0,0,0,.6.59H26.62a.59.59,0,0,0,.6-.59V3.38a.59.59,0,0,0-.6-.59Z"/><path class="cls-3" d="M9.14,13.05l5.67-4.12a.49.49,0,0,0,.24-.41.33.33,0,0,0-.1-.26.35.35,0,0,0-.27-.11.51.51,0,0,0-.2,0,.73.73,0,0,0-.23.12L6.46,13.9V8.83a1.3,1.3,0,0,0-.08-.46A.36.36,0,0,0,6,8.15a.42.42,0,0,0-.42.21,1.4,1.4,0,0,0-.08.49v9.63a1.39,1.39,0,0,0,.07.48A.39.39,0,0,0,6,19.2.38.38,0,0,0,6.37,19a1.29,1.29,0,0,0,.09-.51V14.81l2-1.3L14.29,19a.54.54,0,0,0,.36.16.35.35,0,0,0,.28-.13.41.41,0,0,0,.11-.28.56.56,0,0,0-.21-.43Z"/><path class="cls-4" d="M25,14.72a2.4,2.4,0,0,0-.72-.8,3.42,3.42,0,0,0-1-.45c-.22-.06-.43-.1-.66-.14a3.14,3.14,0,0,0,.4-.08,3,3,0,0,0,.58-.23,2.05,2.05,0,0,0,.55-.43,2.16,2.16,0,0,0,.41-.68,2.63,2.63,0,0,0,.16-1,2.68,2.68,0,0,0-.22-1.15,2.13,2.13,0,0,0-.6-.79,2.92,2.92,0,0,0-.91-.48,6.36,6.36,0,0,0-1.14-.25,9.09,9.09,0,0,0-1.31-.09H14.6a.45.45,0,0,0-.31.11.39.39,0,0,0-.13.31V18.81a.41.41,0,0,0,.1.27.34.34,0,0,0,.29.12h5.66a13.58,13.58,0,0,0,2-.13,4.93,4.93,0,0,0,1.6-.48,2.72,2.72,0,0,0,1.08-1A3.12,3.12,0,0,0,25.25,16h0A2.54,2.54,0,0,0,25,14.72Zm-3.44-1.79A15.77,15.77,0,0,1,19.7,13H15.1V8.9h4.36A14.23,14.23,0,0,1,21.65,9a3.77,3.77,0,0,1,1.3.4,1.37,1.37,0,0,1,.62.62,2.21,2.21,0,0,1,.16.87A2.06,2.06,0,0,1,23.5,12a1.6,1.6,0,0,1-.72.63A4,4,0,0,1,21.52,12.93Zm2.79,3a4.91,4.91,0,0,1-.09.94,1.51,1.51,0,0,1-.45.79,2.8,2.8,0,0,1-1.11.56,8.1,8.1,0,0,1-2.08.21H15.1V13.66h4.6a14.36,14.36,0,0,1,1.93.11,5.28,5.28,0,0,1,1.45.37,2.26,2.26,0,0,1,.91.7A1.82,1.82,0,0,1,24.31,16Z"/><path class="cls-3" d="M24.34,23.22H14.53a.38.38,0,1,1,0-.75h9.81a.38.38,0,0,1,0,.75Z"/><path class="cls-4" d="M14.78,23.22H5.66a.38.38,0,0,1,0-.75h9.12a.38.38,0,1,1,0,.75Z"/></svg>